<svg data-bbox="17.2 7.6 76 123.8" xmlns="http://www.w3.org/2000/svg" viewBox="0 0 110.6 138.9">
    <g>
        <path d="M93.2 45.6c0-20.9-17-38-38-38-20.9 0-38 17-38 38 0 14.4 8.3 35.8 21.9 46.6 0 .1-.1.2-.1.3 0 2.6.6 4.9 1.8 7h-.6c-.7 0-1.3.6-1.3 1.3 0 2.6.6 4.9 1.8 7h-.6c-.7 0-1.3.6-1.3 1.3 0 2.6.6 4.9 1.8 7H40c-.7 0-1.3.6-1.3 1.3 0 8.3 6.5 14 15.7 14s15.7-5.8 15.7-14c0-.7-.6-1.3-1.3-1.3h-.6c1.2-2.1 1.9-4.4 1.9-7 0-.7-.6-1.3-1.3-1.3h-.6c1.2-2 1.8-4.4 1.8-7 0-.7-.6-1.3-1.3-1.3h-.6c1.2-2 1.8-4.2 1.8-6.7 14.7-10.6 23.3-32.5 23.3-47.2zm-73.4 0c0-19.6 15.9-35.5 35.5-35.5S90.8 26 90.8 45.6c0 14.4-9 36.1-22.3 45.7h-4.7l14.6-25.8c.3-.6.1-1.4-.5-1.7-.6-.3-1.4-.1-1.7.5L74.7 67c-.8-.6-1.7-.9-2.7-.9-1.3 0-2.5.5-3.3 1.4-.7.7-2.2.7-2.9 0-.8-.9-2-1.4-3.3-1.4-1.3 0-2.5.5-3.3 1.4-.3.4-.9.6-1.4.6-.6 0-1.1-.2-1.4-.6-.8-.9-2-1.4-3.3-1.4-1.3 0-2.5.5-3.3 1.4-.3.4-.9.6-1.4.6-.6 0-1.1-.2-1.4-.6-.8-.9-2-1.4-3.3-1.4-1.3 0-2.5.5-3.3 1.4-.3.4-.9.6-1.4.6-.5 0-1-.2-1.3-.5l-1.8-3.3c-.3-.6-1.1-.8-1.7-.5-.6.3-.8 1.1-.5 1.7l14.6 25.8h-5.6C28.8 81.7 19.8 60 19.8 45.6zm30.9 45.6L38.9 70.4c1.2-.1 2.2-.6 3-1.4.6-.7 2.2-.7 2.9 0 .8.9 2 1.4 3.3 1.4 1.3 0 2.5-.5 3.3-1.4.3-.4.9-.6 1.4-.6.6 0 1.1.2 1.4.6.8.9 2 1.4 3.3 1.4 1.3 0 2.5-.5 3.3-1.4.3-.4.9-.6 1.4-.6.6 0 1.1.2 1.4.6.8.9 2 1.4 3.3 1.4 1.3 0 2.5-.5 3.3-1.4.3-.4.9-.6 1.4-.6.6 0 1.1.2 1.4.6h.1L60.8 91.2H50.7zm4.1 37.6c-7.3 0-12.5-4.2-13.1-10.3H68c-.6 6.1-5.9 10.3-13.2 10.3zM44 116c-1.3-1.6-2.1-3.6-2.3-5.7H68c-.2 2.2-1 4.1-2.3 5.7H44zm0-8.3c-1.3-1.6-2.1-3.6-2.3-5.7H68c-.2 2.2-1 4.1-2.3 5.7H44zm0-8.2c-1.3-1.6-2.1-3.6-2.3-5.7H68c-.2 2.2-1 4.1-2.3 5.7H44z"/>
    </g>
</svg>
