<svg data-bbox="7.9 34.8 99.6 52.4" xmlns="http://www.w3.org/2000/svg" viewBox="0 0 110.6 110.6">
    <g>
        <path d="M106.3 66.4H95.4v-3.7H99c.6 0 1.1-.6 1.1-1.3s-.5-1.3-1.1-1.3h-3.6v-3.2h9.6c.6 0 1.1-.6 1.1-1.3s-.5-1.3-1.1-1.3h-9.6V43.9c0-3.1-1.8-8.8-8.5-9.1h-70c-1.3 0-2.9.4-4.5 1.2l-1.6.7.3.2c-1.8 1.4-3.2 3.6-3.2 7.1v34c0 3.2 1.9 9.2 9.2 9.2h69.2c3.2 0 9.2-1.9 9.2-9.2v-9.2h10.9c.6 0 1.1-.6 1.1-1.3s-.6-1.1-1.2-1.1zM17.1 37.3h69.7L51.6 59.5 16.5 37.3h.6zm75.8 40.5c0 1.6-.4 2.8-.9 3.7L65.3 70.7c-.6-.3-1.4 0-1.6.7-.3.6 0 1.4.7 1.6l25.7 10.4c-1.7 1.1-3.5 1.2-3.9 1.2H17.1c-1.7 0-2.9-.4-3.8-1l25.9-10.5c.6-.3.9-1 .7-1.6-.3-.6-1-.9-1.6-.7L11.4 81.6c-.9-1.6-1-3.3-1-3.7v-34c0-3.1 1.4-4.8 2.9-5.7l38.4 24.2L90 38.1c2.8 1.7 2.9 5.2 2.9 5.7v10.6h-8.2c-.6 0-1.1.6-1.1 1.3s.5 1.3 1.1 1.3h8.2v3.2h-2.4c-.6 0-1.1.6-1.1 1.3s.5 1.3 1.1 1.3h2.4v3.7h-3.3c-.6 0-1.1.6-1.1 1.3s.5 1.3 1.1 1.3h3.3v8.7z"/>
    </g>
</svg>
