<svg data-bbox="68.869 393.1 1062.162 413.9" xmlns="http://www.w3.org/2000/svg" viewBox="0 0 1200 1200">
    <g>
        <path d="M1118.4 487c-7.4-.5-13.9 5.1-14.4 12.6-5.2 75-38 133.9-74.9 135.1 1.9-11.3 2.9-22.8 2.9-34.6 0-114.2-92.9-207-207-207-109.6 0-199.6 85.6-206.6 193.5h-23.8c-7-107.9-97-193.5-206.6-193.5-114.1 0-207 92.9-207 207 0 11.2.9 22.1 2.6 32.8-.8.1-1.6.3-2.4.6-1.2.4-5.1 1.3-9.2 1.3-37.4 0-70.8-59.4-76.1-135.1-.5-7.5-7-13.1-14.4-12.6-7.5.5-13.1 7-12.6 14.4 6.5 92.9 49.8 160.3 103 160.3 7.2 0 13.9-1.4 17.6-2.6 25.7 85.4 105 147.8 198.6 147.8 109.6 0 199.6-85.6 206.6-193.5h23.8c7 107.9 97 193.5 206.6 193.5 92.7 0 171.4-61.3 197.7-145.5 1.7.1 3.4.2 5.2.2 53.2 0 96.6-67.4 103-160.3.5-7.4-5.1-13.9-12.6-14.4zM388.1 780c-99.2 0-180-80.7-180-180 0-99.2 80.7-180 180-180s180 80.7 180 180c-.1 99.2-80.8 180-180 180zm436.9 0c-99.2 0-180-80.7-180-180 0-99.2 80.7-180 180-180 99.2 0 180 80.7 180 180 0 99.2-80.7 180-180 180z"/>
        <path d="M435.2 601h-85c-7.5 0-13.5 6-13.5 13.5s6 13.5 13.5 13.5h85c7.5 0 13.5-6 13.5-13.5s-6-13.5-13.5-13.5z"/>
        <path d="M871.2 601h-84c-7.5 0-13.5 6-13.5 13.5s6 13.5 13.5 13.5h84c7.5 0 13.5-6 13.5-13.5s-6-13.5-13.5-13.5z"/>
    </g>
</svg>
